<?xml version="1.0" encoding="UTF-8"?>
<svg id="Layer_1" data-name="Layer 1" xmlns="http://www.w3.org/2000/svg" viewBox="0 0 453.13 257.78">
  <defs>
    <style>
      .cls-1 {
        fill: #f0b51a;
      }

      .cls-1, .cls-2, .cls-3, .cls-4, .cls-5, .cls-6, .cls-7, .cls-8, .cls-9, .cls-10, .cls-11, .cls-12, .cls-13, .cls-14, .cls-15, .cls-16, .cls-17, .cls-18, .cls-19, .cls-20, .cls-21, .cls-22, .cls-23, .cls-24, .cls-25 {
        stroke-width: 0px;
      }

      .cls-2 {
        fill: #e9e9d3;
      }

      .cls-3 {
        fill: #5d3514;
      }

      .cls-4 {
        fill: #fcfce4;
      }

      .cls-5 {
        fill: #b0aaa5;
      }

      .cls-6 {
        fill: #dedad7;
      }

      .cls-7 {
        fill: #ac7128;
      }

      .cls-8 {
        fill: #e8e7d0;
      }

      .cls-9 {
        fill: #edb21a;
      }

      .cls-10 {
        fill: #d8d0b7;
      }

      .cls-11 {
        fill: #b07526;
      }

      .cls-12 {
        fill: #f5db02;
      }

      .cls-13 {
        fill: #e3e0de;
      }

      .cls-14 {
        fill: #f6dd01;
      }

      .cls-15 {
        fill: #f6f7e0;
      }

      .cls-16 {
        fill: #e7ae19;
      }

      .cls-17 {
        fill: #fbd028;
      }

      .cls-18 {
        fill: #f9f9e1;
      }

      .cls-19 {
        fill: #8b481f;
      }

      .cls-20 {
        fill: #f3b61b;
      }

      .cls-21 {
        fill: #f8df00;
      }

      .cls-22 {
        fill: #eab118;
      }

      .cls-23 {
        fill: #e48025;
      }

      .cls-24 {
        fill: #b6b3b1;
      }

      .cls-25 {
        fill: #f1d701;
      }
    </style>
  </defs>
  <path class="cls-15" d="M1.69,0c.33.75.33,1.5,0,2.62-.78.37-1.24.36-1.69.36C0,2.24.01,1.49.02.37c.45-.37.89-.37,1.67-.37Z"/>
  <g>
    <path class="cls-3" d="M334,253.87c-.45-.02-.91-.03-2.09.02-9.8,1.02-18.88,1.98-27.95,2.94-.43-.05-.87-.11-2.07-.13-9.78.38-18.79.73-27.8,1.08-.59-.1-1.18-.2-2.39-.28-9.63-.07-18.64-.16-27.64-.25-.46-.1-.91-.19-2.14-.32-9.81-.64-18.84-1.25-27.88-1.85-.44-.11-.88-.22-2.02-.41-9.75-1.84-18.8-3.59-27.84-5.35-.49-.23-.97-.47-1.96-.91-3.27-2.33-6.04-4.44-8.81-6.55,0-.42-.02-.84-.06-1.98,1.12-5.6-.64-7.97-5.67-9.38-7.19-2-8.32-4.35-8.36-12.05-.01-2.14-.19-4.29-.29-6.43.08-.45.15-.9.24-2.13-.07-9.81-.16-18.84-.24-27.87.08-.45.16-.9.24-2.13-.07-9.81-.16-18.84-.24-27.87.08-.45.16-.9.24-2.13-.1-7.82-.19-14.85-.29-21.89.08-3.36.16-6.72.24-10.97.04-3.05-.06-5.21.15-7.34.51-5.18,1.16-10.34,1.75-15.51,1.45-1.05,2.91-2.1,4.78-3.44.73-.38.97-.57,1.45-.84,1.05-.43,1.77-.87,2.86-1.34,3.32-.46,4.85-1.74,3.86-5.05-1.25-4.15.8-7.03,4.08-9.29,1.36-.94,2.71-1.88,4.06-2.83.83-.23,1.66-.46,3.06-.95,1.96-.76,3.35-1.26,5.02-1.7.77-.19,1.26-.46,2.1-.7.77-.13,1.19-.3,1.89-.38.77-.17,1.27-.41,2.11-.62.77-.11,1.19-.27,1.9-.33.78-.15,1.28-.39,2.2-.59,3.49-.44,6.55-.92,9.62-1.4,0,0-.21.23-.22.67-5.03,4.14-10.04,7.88-15.1,11.54-3.5,2.52-4.58,5.01-1.62,9,2.2,2.97,3.71,6.78,4.91,10.17-3.16-.62-6.32-1.24-9.52-1.97-7.23-.37-13.99-.47-19.64,3.91-.03.59-.05,1.19-.08,1.78,5.7,1.13,11.41,2.27,17.51,3.63,5.16.68,9.93,1.14,14.87,1.93.7,2.96,1.62,5.58,1.75,8.22-8.44-1.15-16.88-2.31-25.17-3.66-3.62-.89-6.99-1.6-10.41-2.31-.82,13.98-1.7,13.4,8.94,15.7,9.08,1.56,17.86,2.88,26.67,4.63-.66,9.92-.93,19.4-2.03,28.9-8.41-1.03-16.81-2.06-25.09-3.32-2.93-.98-5.58-1.74-8.32-2.53-1.25,13.15-1.65,13.08,8.78,15.21,7.77,1.43,15.24,2.6,22.77,4.24-.98,8.91-2,17.33-3.02,25.83-6.48-.82-12.95-1.65-19.27-2.62-3.24-1.06-6.2-1.9-9.25-2.76-1.16,12.28-2.25,12.79,10.84,15.11,5.79,1.1,11.54,1.94,16.82,3.44-.36,9.12-.9,17.73-1.27,26.46-4.22-.62-8.45-1.23-12.26-1.8-.83,5.21-.96,5.67,2.55,6.72,5.74,1.51,11.23,2.68,17.12,3.96,4.77.7,9.15,1.27,13.97,1.98,10.27.86,20.11,1.62,29.95,2.25,1.57.1,3.18-.42,5.15-.62,4.5.49,8.64,1.47,12.74,1.32,20.76-.8,41.55-1.45,62.25-3.08,9.52-.75,18.89-3.5,28.28-5.59,3.37-.75,4.95-3.02,3.55-6.64-.72-.06-1.21-.18-1.69-.14-22.52,1.85-45,4.34-67.56,5.37-17.25.79-34.58-.25-52.34-.55-4.76-.16-9.05-.25-13.34-.7,2.97-8.99,1.67-17.72.62-26.41,2.57-.08,5.14-.15,7.69-.14,15.11.31,29.78.55,44.92.86,13.55-.29,26.65-.53,39.74-1.08,5.58-.23,11.14-1.11,17.15-1.61,10.21-1.56,19.96-3.2,30.12-4.83,9.66-1.03,11.27-3.69,8.57-14.14-2.79.83-5.58,1.65-8.74,2.47-9.36,1.35-18.36,2.71-27.82,4.05-9.71.53-18.95,1.13-28.19,1.61-8.74.45-17.49.78-26.71,1.04-9.47-.07-18.48-.03-27.97-.08-10.51-.47-20.35-.91-30.62-.79-.76-4.22-2.01-8.89-1.93-12.76.1-4.93,1.07-9.88,1.79-14.75,1.86.05,3.72.1,5.43.39.18,3.59.15,6.87-.03,10.14-.28,5.14.71,10.3,5.5,12.43,3,1.33,7.73,1.06,10.75-.42,5.31-2.58,7.99-7.75,8.53-13.82.22-2.47.75-4.83,1.02-7.38,2.06-.02,4.13-.04,6.2.03,12.19-.07,23.95-.21,36.17-.26,10.41-.35,20.38-.55,30.31-1.31,6.74-.52,13.42-1.81,20.57-2.69,6.15-.95,11.87-1.97,17.98-2.98,9.42-2.15,10.18-3.57,7.89-14.91-3.15,1.04-6.24,2.07-9.75,3.04-4.79.65-9.15,1.35-13.94,2-3.89.3-7.34.74-10.81,1.02-12.89,1.03-25.79,2.01-39.15,2.92-13.47,0-26.47.07-39.91.08-2.51-.09-4.59.34-6.82-.03-1.66-10.02-3.1-20.34-4.62-29.8,3.83.05,7.66.11,11.52.32,17.07-.33,33.71-.77,50.76-1.09,4.87-.11,9.36-.11,13.79-.63,11.98-1.43,23.93-3.09,36.3-4.67,3.61-.76,6.92-1.22,9.96-2.38,1.38-.53,2.95-2.35,3.17-3.77.47-3.17.15-6.46.15-10.87-5.28,1.48-9.61,2.69-14.37,3.85-17.8,1.65-35.17,3.36-52.99,5-14.81.29-29.15.64-43.81.72-5.48-.35-10.64-.43-15.95-.87.03-2.81.29-5.27.38-7.71,5.93.24,11.85.75,17.32.69,14.47-.17,28.95-.57,43.42-.97,1.43-.04,2.85-.7,4.72-.98,20.3-.38,40.02-1.76,59.2-8.7-6.13-2.32-12.5-4.93-18.5-4.25-13.5,1.53-26.81,4.7-40.67,7.15-21.27.29-42.17.61-62.92.6,2.05-2.29,3.83-5.16,6.2-5.94,6.23-2.06,12.71-4.09,19.2-4.54,13.44-.92,27.01-.14,40.42-1.33,10.19-.9,20.25-3.57,30.26-5.92,2.02-.47,4.81-2.91,4.96-4.64.15-1.68-2.36-4.02-4.21-5.36-4.02-2.9-8.37-5.35-12.59-7.99,2.43.26,4.86.51,8.02.85,1.49.15,2.25.21,3.2.49.75.25,1.31.28,2.22.5,4.99,1.91,9.64,3.64,14.3,5.37,1.12,1.05,2.24,2.11,3.74,3.67.69,1.08,1.37,1.75,1.25,2.19-2.34,8.08,3.34,10.07,9.05,12.09.77.27,1.48.7,2.22,1.05.48.6.95,1.21,1.85,2.26,1.19,7.96,1.96,15.48,2.75,23.14,3.93-5.12,7.8-10.16,11.67-15.2,1.18-.93,2.36-1.86,3.97-3.2,2.7-2.09,4.97-3.77,7.62-5.52,5.64-1.98,10.91-3.88,16.47-5.72.84-.1,1.39-.27,1.94-.43.38.06.77.13,1.79.22,2.78.01,4.92,0,7.37.1.76.12,1.21.11,1.9.34,1.76.64,3.27,1.05,5.07,1.66,1.71.93,3.15,1.66,4.69,2.69,2.52,3.45,4.94,6.59,7.39,10.09.6,1.69,1.16,3.01,1.69,4.8-.03,4.18-.02,7.89-.25,11.82-.39,1.07-.53,1.91-.68,2.76-.4.78-.8,1.56-1.4,2.93-5.79,7.94-11.38,15.28-16.97,22.63-1.19.94-2.37,1.88-3.99,3.17-1.03.93-1.63,1.5-2.5,2.13-1,.67-1.71,1.27-2.78,1.95-5.87,3.26-11.4,6.44-16.76,9.53,7.39,1.76,14.83,3.54,22.51,5.52,1.21.61,2.17,1.01,3.31,1.68.93.63,1.69.99,2.63,1.62,2.31,2.49,4.44,4.71,6.61,7.31,1.1,3.76,2.16,7.13,3.15,10.9-.02,1.48.02,2.56-.1,3.9-.23,1.1-.29,1.94-.53,3.07-.23.75-.27,1.2-.56,1.87-.7,1.41-1.17,2.6-1.88,4.02-1.44,1.74-2.64,3.26-3.84,4.77-.65.42-1.3.84-2.4,1.62-4.19,1.74-7.92,3.12-11.66,4.51-.56.03-1.12.07-2.36.24-9.6-.64-18.53-1.42-27.45-2.19-.5-.21-1-.42-2.03-.84-4.39-1.94-8.25-3.68-12.77-5.72,0,4.42,0,8.21,0,11.99-.01,7.54-.92,9.75-8.07,11.77-5.61,1.58-7.02,4.51-6.12,9.59-.13.43-.27.86-.61,1.77-.39.98-.58,1.47-.76,1.96-1.24.88-2.47,1.75-4.24,2.95-8.9,2.62-17.26,4.91-25.63,7.21M436.58,111.73c8.26-3.43,8.64-4.32,3.78-9.98-1.22.92-2.47,1.88-4.44,3.05-2.15.79-4.24,1.86-6.45,2.3-3.76.75-4.95,3.12-5.32,7.77,4.33-1.2,8.03-2.22,12.43-3.13M422.61,127.67c5.65-1.94,11.26-4.02,16.97-5.78,3.82-1.18,5.15-3.6,4.92-7.44-5.73,1.74-11.19,3.4-17.49,4.92-7.51-.56-9,.28-12.1,6.85,1.81,3.05,4.13,3.48,7.7,1.45M414.97,194.27c0-1.08.47-2.61-.06-3.17-3.09-3.21-9.87-1.44-11.96,3.31-.98,2.82-2.25,5.58-2.79,8.48-.21,1.11,1.07,3.49,1.97,3.65,4.49.83,9.08,1.12,14.38,1.68-.52-3.02-.92-4.94-1.17-6.88-.28-2.14-.42-4.3-.37-7.08M412.85,132.28c-1.5-.24-3.3-1.12-4.42-.59-2.07.99-3.26,2.92-1.23,5.94,1.81,2.95,3.3,6.18,5.55,8.75,1.2,1.37,4.37,2.78,5.48,2.15,3.97-2.29,7.44-5.44,10.97-8.18-5.96-2.78-11.01-5.15-16.35-8.08M312.51,144.99c-.51,1.7-1.02,3.39-1.47,4.89.67.55.94.95,1.17.93,12.68-.94,25.37-1.9,38.04-2.95.68-.06,1.6-.72,1.9-1.35,2.01-4.23,3.89-8.53,5.96-13.16-1.49-.19-2.15-.4-2.78-.33-10.19,1.06-20.4,1.95-30.55,3.32-5.05.68-12.02-.8-12.27,8.65M298.49,231.99c7.45-.35,14.91-.59,22.35-1.09,4.36-.29,6.54-3.74,6.18-9.09-.32-4.64-3.92-2.76-6.07-2.73-9.45.11-18.9.69-28.35.9-7.82.17-10.75,3.11-10.97,12.02,5.29,0,10.58,0,16.86,0M299.44,181.6c-1.22,3.16-2.44,6.32-4.17,10.78,13.95-.89,26.6-1.66,39.24-2.59.86-.06,1.99-1.22,2.36-2.13,1.16-2.88,2.01-5.89,3.26-9.69-13.82,1.11-26.91,2.16-40.7,3.63M403.87,128.41c1.97-2.35,5.12-4.46,5.65-7.1.85-4.25-3.99-9.88-8.81-11.34-1.56-.47-4.25-.31-5.11.7-1.52,1.76-3.32,4.83-2.72,6.57,1.37,3.98,3.96,7.59,6.43,11.08.53.76,2.64.4,4.56.09M420.48,194.01c.23,3.29.31,6.59.79,9.84.16,1.07,1.18,2.56,2.13,2.87,3.03.99,11.7-4.38,12.57-7.58.2-.73.23-1.7-.1-2.34-1.41-2.78-11.93-5.22-15.4-2.8M402.48,157.4c2.93-1.29,5.86-2.58,8.97-3.94-2.34-3.06-4.3-5.3-5.9-7.78-1.57-2.43-2.78-5.08-4.15-7.64-7.12,4.28-6.76,13.6,1.09,19.35M413.33,115.62c.51.27,1.39.87,1.48.76,5.25-5.77,8.07-12.56,8.58-20.82-3.73.67-9.17,1.33-9.73,3.35-1.39,5.01-.55,10.64-.33,16.71M385.93,160.33c2.91-.49,5.81-.99,8.79-1.49-1.52-4.41-2.91-8.43-4.3-12.45-11.88,6.51-12.11,6.84-10.15,14.66,1.58-.17,3.2-.34,5.66-.72M394.17,203.66c1.68-4.79,3.37-9.58,5.53-15.74-4.24.55-9.19-.29-11.28,1.77-4.61,4.56-1.39,12.43,5.74,13.98M402.07,183.69c8.68.74,11.03-1.03,12.85-10.23-3.49-.2-6.97-.87-10.28-.38-1.49.22-3.21,2.57-3.77,4.3-.61,1.87-3.42,4.47,1.2,6.31M392.93,128.5c-1.55-2.44-3.11-4.88-4.73-7.42-6.06,7.27-4.9,10.07,1.34,15.28,3.71,3.09,5.34-.55,7.47-2.75-1.36-1.69-2.5-3.11-4.08-5.11M423.33,175.57c-2.64,2.88-5.28,5.76-8.33,9.08,9.82,3.01,12.17,2.11,16.09-5.6-2.36-1.1-4.71-2.19-7.76-3.49M379.72,178.99c.13,1.53.26,3.06.38,4.52,13.81.3,14.93-.41,15.22-9.59-5.13,1.51-10.15,2.98-15.6,5.08M276.81,225.24c.27-1.24.53-2.47.8-3.72-9.16-1.49-11.2.31-11.77,10.04q7.7,1.14,10.96-6.32M286.04,181.04c-4.27,2.3-4.51,6.54-5.84,10.52,9.08,1.04,11.41-1.12,11.42-10.33-1.56-.08-3.16-.15-5.57-.2M306.52,140.96c-.15-1.2-.3-2.41-.46-3.61-1.08.2-2.85.08-3.12.65-1.99,4.24-3.67,8.62-5.58,13.27,4.11,1.11,6.23.9,6.82-2.89.35-2.27,1.34-4.45,2.34-7.42M383.64,137.87c-.73-.52-1.46-1.04-2.82-2.02-.58,3.7-1.05,6.74-1.7,10.84,2.42-1.35,3.6-1.91,4.66-2.64,1.06-.72,2-1.62,3.17-2.59-1.07-1.18-1.95-2.14-3.31-3.59M438.66,129.33c-3.13-1.22-8.95.54-11.95,3.63,5.79,1.78,8.17,1.17,11.95-3.63M434.69,96.65c-1.64-.39-3.29-.77-5.33-1.25-.34,2.54-.57,4.35-.81,6.15.54.34,1.08.68,1.62,1.02,1.69-1.83,3.38-3.66,4.52-5.92Z"/>
    <path class="cls-23" d="M193.93,235.89c.39-8.67.78-17.34,1.29-26.84.36-4.81.6-8.8.85-12.78,1.02-8.46,2.05-16.91,3.18-26.2.64-4.96,1.17-9.09,1.7-13.23.68-9.49,1.37-18.98,2.05-29.41-.02-5.24-.04-9.54-.06-13.85-.53-2.63-1.06-5.27-1.75-8.62-1.16-3.44-2.15-6.16-3.13-8.88-1.6-3.42-2.71-7.2-4.91-10.17-2.96-3.99-1.87-6.48,1.62-9,5.07-3.65,10.07-7.39,15.2-11.42,2.88-1.68,5.65-3.05,8.97-4.7,8.04-2.91,15.55-5.53,23.05-8.15.56-.07,1.11-.13,2.23-.38,1.3-.37,2.04-.57,3.04-.65.77-.1,1.27-.31,2.18-.5,1.46-.17,2.51-.37,3.87-.45,1.11-.12,1.92-.35,3.19-.55,4.15-.17,7.84-.38,11.53-.59,4.03.19,8.06.37,12.91.55,1.58,0,2.33,0,3.33.23,1.09.23,1.94.24,3.17.39,1.45.23,2.52.31,3.78.6.75.21,1.3.22,2.2.38,1.1.24,1.86.31,2.8.61.74.25,1.29.28,2.21.48,1.42.37,2.47.57,3.52.77.49.21.98.43,1.99.87,6.21,2.45,11.91,4.66,17.6,6.88,2.97,1.27,5.95,2.54,9.45,4.03.75.35.93.5,1.09.69,0,0-.08,0-.1-.04,4.2,2.6,8.55,5.05,12.57,7.95,1.85,1.34,4.36,3.68,4.21,5.36-.15,1.73-2.94,4.17-4.96,4.64-10.01,2.35-20.07,5.01-30.26,5.92-13.4,1.19-26.97.41-40.42,1.33-6.49.44-12.97,2.47-19.2,4.54-2.37.79-4.04,3.68-6.38,6.13-1.03,2.44-1.72,4.36-2.4,6.28-.17,2.45-.35,4.91-.36,8.15.59,5.18,1.02,9.58,1.45,13.97,1.49,9.67,2.98,19.33,4.62,29.8.53,4.9.9,9,1.28,13.09-.35,2.46-.8,4.91-1.02,7.38-.54,6.07-3.22,11.24-8.53,13.82-3.02,1.47-7.75,1.75-10.75.42-4.79-2.13-5.79-7.29-5.5-12.43.18-3.27.21-6.55.02-10.49-.99-1.61-1.69-2.55-2.39-3.5-1.01,1.15-2.01,2.31-3.02,3.46-.64,4.91-1.69,9.82-1.79,14.75-.08,3.86,1.01,7.75,1.74,12.41.79,4.85,1.41,8.91,2.04,12.97.96,8.7,2.35,17.42-.81,26.72-2.55,3.1-4.89,5.59-7.22,8-4.38-.57-8.52-1.07-13.41-1.89-2.75-3.15-5.24-6.19-7.55-8.89M320.37,69.72c-8.36-3.23-16.49-7.42-25.13-9.48-17.65-4.22-35.59-3.61-53.19.68-13.17,3.21-25.61,8.42-35.57,18.13-4.33,4.22-4.5,7.34-1.5,12.46,1.25,2.14,2.34,4.4,3.23,6.71,4.61,11.91,3.16,24.36,2.45,36.55-.92,15.87-3,31.67-4.64,47.49-1.2,11.53-2.65,23.04-3.69,34.59-.47,5.21-.85,10.58-.08,15.7.57,3.8,4.19,6.29,8.17,5.95,3.96-.34,5.33-3.98,5.47-7.37.21-5.12.21-10.34-.52-15.4-2.3-15.91-5.98-31.76.22-48.11,5.24-7.23,8.29-8.25,16.48-4.72.72,6.67,1.45,13.34,2.05,20.78.99,1.66,1.99,3.32,2.98,4.98,1.66-1.45,4.07-2.57,4.86-4.39,3.93-8.99,1.89-18.26.5-27.43-2.33-15.38-6.05-30.59-5.43-46.31.4-10.17,4.89-18.39,14.14-22.29,7.01-2.96,14.94-4.62,22.56-5.03,18.08-.98,36.22-.81,54.33-1.29,3.66-.1,7.29-.99,12.04-1.68-5.76-6.44-13.13-7.03-19.72-10.53Z"/>
    <path class="cls-8" d="M451.88,119.25c.57.53.9,1.28,1.25,2.36-.41.35-.85.37-1.61.39-.18-.84-.03-1.69.36-2.76Z"/>
    <path class="cls-8" d="M429.04,151.8c-.58.55-1.17.83-2.09,1.06.26-.62.85-1.19,1.75-1.82.32.12.32.3.34.76Z"/>
    <path class="cls-3" d="M332.06,65.81c-.14.03-.32-.12-.71-.31.13-.13.42-.08.71.31Z"/>
    <path class="cls-9" d="M235.64,239.07c17.3.23,35.09,1.34,52.34.55,22.55-1.04,45.04-3.52,67.56-5.37.48-.04.98.07,1.69.14,1.4,3.61-.19,5.89-3.55,6.64-9.39,2.09-18.76,4.84-28.28,5.59-20.7,1.63-41.49,2.28-62.25,3.08-4.09.16-8.21-.58-12.89-1.4-2.39-1.07-4.42-1.74-6.01-2.81-2.85-1.91-5.91-4.28-8.61-6.42Z"/>
    <path class="cls-12" d="M304.99,116.07c17.37-1.7,34.73-3.87,52.53-5.06.52,4.58.6,9.12.68,13.19-11.96,1.57-23.92,3.23-35.9,4.66-4.43.53-8.9.89-13.79.63-1.45-4.68-2.5-9.24-3.53-13.43Z"/>
    <path class="cls-21" d="M332.83,209.99c-5.57.58-11.97,1.37-17.56,1.61-13.09.55-26.62,1.12-40.17,1.07,1.61-4.09,3.46-8.36,4.56-12.48,8.75-.38,17.96-.59,26.71-1.04,9.25-.48,18.87-1.29,28.53-1.66-.56,4.28-1.63,8.68-2.07,12.5Z"/>
    <path class="cls-1" d="M304.99,116.07c1.49,4.25,2.48,8.87,3.53,13.43-16.62.81-33.64,1.1-50.76,1.09.78-4.72,1.69-9.6,2.96-13.86,14.35-.35,29.47-.37,44.27-.66Z"/>
    <path class="cls-14" d="M345.04,168.97c-6.71.95-13.48,2.13-20.22,2.64-9.93.76-20.29,1.32-30.65,1.31.9-4.45,2.42-8.73,3.43-12.91,12.89-1,26.26-1.88,39.15-2.92,3.47-.28,7.02-.84,10.81-1.02-.6,4.42-1.54,8.9-2.52,12.89Z"/>
    <path class="cls-19" d="M312.66,144.61c.11-9.07,7.07-7.6,12.12-8.28,10.15-1.37,20.36-2.26,30.55-3.32.63-.07,1.28.14,2.78.33-2.07,4.62-3.95,8.92-5.96,13.16-.3.63-1.22,1.29-1.9,1.35-12.68,1.05-25.36,2.01-38.04,2.95-.23.02-.5-.38-1.17-.93.45-1.5.96-3.19,1.62-5.26Z"/>
    <path class="cls-1" d="M297.6,160.01c-.84,4.1-2.07,8.55-3.43,12.91-11.84.04-23.68.67-35.84.26-.34-4.55-.26-9.02-.21-13.02,13-.08,26.01-.17,39.47-.16Z"/>
    <path class="cls-19" d="M298,231.99c-5.79,0-11.07,0-16.37,0,.22-8.91,3.15-11.84,10.97-12.02,9.45-.21,18.9-.78,28.35-.9,2.16-.03,5.76-1.91,6.07,2.73.37,5.36-1.82,8.8-6.18,9.09-7.44.49-14.9.74-22.85,1.09Z"/>
    <path class="cls-22" d="M279.66,200.19c-1.22,3.99-2.88,8.27-4.56,12.48-14.38-.36-29.66-.56-44.79-.85-.73-8.01.02-8.78,6.61-5.9,6.57,2.87,10.98.95,14.77-5.8,9.01-.04,18.49,0,27.97.08Z"/>
    <path class="cls-16" d="M311.15,100.87c13.39-2.5,26.67-5.41,40.17-6.94,6-.68,12.37,1.93,18.5,4.25-19.18,6.94-38.88,8.69-59.2,8.7-.14-2.1.21-4.37.53-6.01Z"/>
    <path class="cls-19" d="M299.44,181.6c13.46-1.44,26.88-2.53,40.7-3.63-1.25,3.81-2.11,6.81-3.26,9.69-.36.91-1.5,2.07-2.36,2.13-12.64.93-25.29,1.7-39.24,2.59,1.73-4.47,2.6-7.41,4.17-10.78Z"/>
    <path class="cls-7" d="M311.15,100.87c.14,1.7-.22,4.01-.53,6.01-1.41.74-3.29.94-4.72.98-14.47.4-28.94.8-43.42.97-5.47.06-11.4-.45-17.32-.69.24-1.89,1.42-4.38,2.39-6.46,21.08-.51,42.34-.52,63.6-.82Z"/>
    <path class="cls-9" d="M332.83,209.99c.54-3.92,1.23-8.2,2.07-12.5,9.11-1.31,18.53-2.74,27.89-4.11.18,4.02,0,8.13-.23,11.77-9.76,1.64-19.51,3.28-29.72,4.84Z"/>
    <path class="cls-9" d="M202.94,113.58c.41,4.3.04,9.54.03,14.36-8.81-.81-17.75-2.69-26.67-4.63.43-4.69,1.06-9.29,1.63-13.36,8.05,1.16,16.58,2.48,25.02,3.63Z"/>
    <path class="cls-9" d="M200.95,156.84c-.36,4.17-1.17,9.09-1.86,13.6-7.64-.81-15.47-2.45-23.23-4.33-.25-4.47-.04-8.82,0-12.58,7.99,1.04,16.68,2.29,25.09,3.32Z"/>
    <path class="cls-13" d="M403.6,128.65c-1.65.08-3.76.43-4.29-.32-2.47-3.5-5.06-7.11-6.43-11.08-.6-1.74,1.2-4.81,2.72-6.57.87-1,3.55-1.17,5.11-.7,4.82,1.46,9.65,7.09,8.81,11.34-.53,2.64-3.68,4.75-5.92,7.33Z"/>
    <path class="cls-11" d="M251.69,200.11c-3.32,6.84-8.21,8.67-14.77,5.8-6.59-2.88-6.91-2.03-6.61,5.9-2.02.06-4.81.07-7.38.14-.72-4.06-1.25-8.12-1.85-12.63,10.07-.07,20.11.31,30.62.79Z"/>
    <path class="cls-1" d="M196.06,196.26c.03,4.09-.79,8.83-.87,13.16-5.59-.56-11.21-1.94-17-3.47-.68-4.29-1.09-8.61-1.4-12.32,6.03.76,12.8,1.8,19.27,2.62Z"/>
    <path class="cls-11" d="M235.64,239.07c3.17,2.21,5.76,4.51,8.61,6.42,1.59,1.06,4.17,1.85,6.17,2.89-1.46.15-3.58.72-5.15.62-9.85-.63-20.11-1.45-30.38-2.31,2.13-2.23,5.14-5.49,7.42-8.31,4.34.4,8.58.54,13.34.7Z"/>
    <path class="cls-22" d="M345.04,168.97c.88-3.99,1.96-8.44,2.52-12.89,4.61-.85,9.42-1.34,14.02-2.02.78,4.13,1.05,8.3,1.4,11.95-5.72,1.02-11.79,2.01-17.94,2.96Z"/>
    <path class="cls-11" d="M260.71,116.73c-.99,4.67-3.03,14.11-2.96,13.86-3.38.24-7.69-.26-11.52-.32-.84-4.35-1.02-9.58-1.47-14.41,5.14-.36,10.47.52,15.95.87Z"/>
    <path class="cls-24" d="M413.14,132.85c5.06,2.36,10.11,4.73,16.07,7.51-3.54,2.74-7.01,5.89-10.97,8.18-1.11.64-4.28-.78-5.48-2.15-2.25-2.57-3.74-5.8-5.22-9.15,2.09-1.73,3.85-3.06,5.61-4.39Z"/>
    <path class="cls-11" d="M358.2,124.2c-.49-4.06-.6-8.66-.68-13.19,4.33-1.67,9.08-2.37,14.37-3.85,0,4.42.33,7.71-.15,10.87-.21,1.42-1.79,3.24-3.17,3.77-3.04,1.17-6.76,1.64-10.37,2.39Z"/>
    <path class="cls-24" d="M414.72,194.91c.2,2.15.34,4.31.62,6.44.25,1.94.65,3.86,1.17,6.88-5.31-.56-9.9-.85-14.38-1.68-.9-.17-2.18-2.54-1.97-3.65.54-2.9,1.81-5.66,3.49-8.7,4.16.09,7.62.4,11.07.71Z"/>
    <path class="cls-24" d="M420.59,193.6c3.36-2.02,13.88.42,15.29,3.21.32.64.29,1.61.1,2.34-.87,3.2-9.54,8.57-12.57,7.58-.95-.31-1.97-1.8-2.13-2.87-.48-3.25-.56-6.56-.68-10.25Z"/>
    <path class="cls-24" d="M402.13,157.41c-7.5-5.76-7.86-15.07-.74-19.36,1.37,2.55,2.58,5.21,4.15,7.64,1.6,2.47,3.56,4.72,5.9,7.78-3.11,1.37-6.04,2.66-9.32,3.95Z"/>
    <path class="cls-6" d="M413.19,115.28c-.08-5.73-.92-11.35.47-16.36.56-2.02,6-2.68,9.73-3.35-.51,8.26-3.33,15.06-8.58,20.82-.1.11-.97-.49-1.62-1.11Z"/>
    <path class="cls-24" d="M385.51,160.44c-2.04.28-3.67.45-5.24.62-1.96-7.82-1.73-8.16,10.15-14.66,1.39,4.02,2.78,8.04,4.3,12.45-2.98.5-5.88,1-9.21,1.6Z"/>
    <path class="cls-5" d="M393.8,203.8c-6.76-1.69-9.99-9.56-5.38-14.12,2.08-2.06,7.04-1.22,11.28-1.77-2.17,6.16-3.85,10.95-5.9,15.88Z"/>
    <path class="cls-13" d="M401.69,183.64c-4.23-1.79-1.43-4.39-.82-6.26.57-1.73,2.29-4.07,3.77-4.3,3.31-.49,6.78.18,10.28.38-1.82,9.2-4.17,10.97-13.23,10.18Z"/>
    <path class="cls-25" d="M177.93,109.95c-.32,4.26-.9,8.92-1.63,13.36-10.5-1.68-9.76-1.71-8.94-15.7,3.42.71,6.94,1.44,10.56,2.34Z"/>
    <path class="cls-25" d="M176.79,193.64c.6,3.93,1.09,8.18,1.4,12.32-12.72-1.74-11.82-2.8-10.65-15.08,3.05.87,6.01,1.7,9.25,2.76Z"/>
    <path class="cls-25" d="M185.93,103.34c-5.7-1.13-11.41-2.4-17.11-3.54.03-.59.05-1.19.08-1.78,5.64-4.38,12.45-4.62,19.64-3.91-.59,3.23-1.62,6.47-2.61,9.23Z"/>
    <path class="cls-16" d="M193.93,235.89c2.49,2.86,5.19,5.88,7.55,8.89-5.54-.93-11.78-2.34-17.25-3.98-3.51-1.05-3.38-1.5-2.55-6.72,3.81.57,8.03,1.19,12.26,1.8Z"/>
    <path class="cls-6" d="M393.14,128.78c1.36,1.71,2.5,3.13,3.86,4.82-2.14,2.2-3.76,5.85-7.47,2.75-6.24-5.21-7.4-8.01-1.34-15.28,1.62,2.55,3.18,4.99,4.95,7.71Z"/>
    <path class="cls-22" d="M185.93,103.34c.59-2.98,1.57-6.13,2.61-9.23,2.82.25,6.37,1.35,9.52,1.97,1.38,2.75,2.15,6.16,3.14,9.27-4.77-.07-10.1-1.33-15.27-2.01Z"/>
    <path class="cls-11" d="M362.98,166.01c-.31-3.63-.77-7.93-1.4-11.95,3.43-.94,6.53-1.97,9.67-3.02,1.17,5.8,1.56,9.13.29,11.18-1.22,1.95-3.96,2.74-8.56,3.79Z"/>
    <path class="cls-6" d="M423.68,175.67c2.7,1.19,5.04,2.29,7.4,3.39-3.92,7.71-6.27,8.61-16.09,5.6,3.05-3.32,5.69-6.2,8.68-8.98Z"/>
    <path class="cls-25" d="M175.86,153.52c.25,3.98.03,8.36,0,12.58-10.14-1.42-9.56-1.97-8.31-15.11,2.74.79,5.39,1.55,8.32,2.53Z"/>
    <path class="cls-6" d="M379.94,178.68c5.24-1.78,10.26-3.26,15.39-4.76-.3,9.19-1.41,9.89-15.22,9.59-.12-1.45-.25-2.98-.16-4.83Z"/>
    <path class="cls-11" d="M362.55,205.15c-.18-3.65-.09-7.63-.17-11.67,3.01-.74,5.95-1.64,8.74-2.47,2.71,10.44,1.1,13.11-8.57,14.14Z"/>
    <path class="cls-5" d="M427.86,119.51c5.45-1.66,10.91-3.31,16.64-5.06.24,3.84-1.09,6.26-4.92,7.44-5.71,1.76-11.32,3.84-17.25,5.42,1.66-2.84,3.59-5.33,5.53-7.81Z"/>
    <path class="cls-19" d="M276.66,225.6q-3.11,7.1-10.81,5.96c.57-9.73,2.6-11.52,11.77-10.04-.27,1.25-.54,2.48-.96,4.08Z"/>
    <path class="cls-19" d="M286.04,181.04c2.01.06,4.01.12,5.57.2,0,9.2-2.34,11.37-11.42,10.33,1.34-3.98,1.16-8.21,5.84-10.52Z"/>
    <path class="cls-11" d="M258.13,160.17c.15,4.14.29,8.55.21,13.02-1.58-.08-4.14-.05-6.2-.03-.32-4.03-.91-8.55-1.28-13.09,2.03-.06,4.76.01,7.26.1Z"/>
    <path class="cls-6" d="M435.87,111.61c-3.7,1.02-7.39,2.04-11.73,3.24.37-4.65,1.56-7.02,5.32-7.77,2.22-.44,4.31-1.51,7.08-2.17.19,2.32-.24,4.51-.68,6.7Z"/>
    <path class="cls-13" d="M427.44,119.44c-1.51,2.56-3.45,5.04-5.47,7.83-2.92,2.43-5.25,2-7.05-1.05,3.1-6.57,4.59-7.41,12.52-6.78Z"/>
    <path class="cls-19" d="M306.38,141.33c-.85,2.59-1.84,4.77-2.19,7.04-.59,3.79-2.71,4-6.82,2.89,1.91-4.65,3.6-9.03,5.58-13.27.27-.58,2.04-.45,3.12-.65.15,1.2.3,2.41.31,3.99Z"/>
    <path class="cls-6" d="M414.84,194.59c-3.59,0-7.05-.3-10.96-.63,1.15-4.3,7.93-6.07,11.02-2.86.54.56.07,2.09-.06,3.49Z"/>
    <path class="cls-10" d="M383.88,138.12c1.12,1.21,2,2.17,3.07,3.35-1.17.97-2.11,1.87-3.17,2.59-1.06.73-2.24,1.28-4.66,2.64.64-4.1,1.12-7.14,1.7-10.84,1.36.98,2.09,1.5,3.06,2.26Z"/>
    <path class="cls-5" d="M436.22,111.67c.08-2.25.52-4.44.68-6.86.98-1.19,2.24-2.14,3.46-3.06,4.86,5.66,4.48,6.55-4.14,9.93Z"/>
    <path class="cls-5" d="M438.51,129.65c-3.64,4.47-6.02,5.08-11.81,3.3,3.01-3.08,8.82-4.85,11.81-3.3Z"/>
    <path class="cls-10" d="M434.97,96.86c-1.42,2.04-3.11,3.88-4.8,5.71-.54-.34-1.08-.68-1.62-1.02.24-1.81.48-3.61.81-6.15,2.04.48,3.69.87,5.61,1.46Z"/>
    <path class="cls-6" d="M413,132.56c-1.62,1.62-3.38,2.95-5.47,4.32-2.35-2.28-1.16-4.2.91-5.19,1.12-.54,2.92.34,4.56.87Z"/>
    <path class="cls-7" d="M220.93,171.82c.85-.94,2.01-2.31,3.02-3.46.76.9,1.97,2.34,2.41,3.85-1.33-.15-3.57-.34-5.43-.39Z"/>
    <path class="cls-8" d="M433.28,88.17c1.39.12,3.01.48,4.72,1.14-1.44-.1-2.96-.5-4.72-1.14Z"/>
    <path class="cls-8" d="M443.82,200.23c-.18,1.09-.6,2.39-1.33,3.75.16-1.14.63-2.34,1.33-3.75Z"/>
    <path class="cls-8" d="M444.91,195.29c.18.69.2,1.65-.07,2.69-.22-.75-.16-1.59.07-2.69Z"/>
    <path class="cls-2" d="M343.19,67.31c.47-.22,1.12-.22,1.83.04-.51.24-1.07.21-1.83-.04Z"/>
    <path class="cls-2" d="M190.27,68.74c.3-.44.88-.81,1.61-.96-.35.49-.84.76-1.61.96Z"/>
    <path class="cls-2" d="M194.26,67.66c.31-.42.9-.77,1.62-.89-.36.47-.85.72-1.62.89Z"/>
    <path class="cls-2" d="M198.26,66.71c.32-.42.92-.76,1.65-.86-.37.47-.87.71-1.65.86Z"/>
    <path class="cls-2" d="M167.33,89.89c.37-.55,1.07-1.08,2.13-1.47-.36.59-1.08,1.04-2.13,1.47Z"/>
    <path class="cls-8" d="M432.62,171.55c.65.03,1.47.34,2.37.99-.68,0-1.44-.36-2.37-.99Z"/>
    <path class="cls-17" d="M234.06,183.17c-.72-6.67-1.28-13.6-2.04-21.06-.58-2.66-.87-4.66-1.72-6.39-1.67-3.42-4.26-5.65-8.36-4.12-6,2.24-8.85,10.13-6.51,16.41-5.67,15.95-2.37,31.8-.07,47.71.73,5.06.73,10.28.52,15.4-.14,3.4-1.51,7.03-5.47,7.37-3.98.34-7.6-2.15-8.17-5.95-.77-5.12-.39-10.49.08-15.7,1.04-11.55,2.49-23.06,3.69-34.59,1.64-15.82,3.72-31.62,4.64-47.49.71-12.19,2.16-24.64-2.45-36.55-.89-2.31-1.98-4.58-3.23-6.71-3-5.12-2.83-8.24,1.5-12.46,9.96-9.71,22.39-14.92,35.57-18.13,17.6-4.29,35.54-4.9,53.19-.68,8.64,2.06,17.01,6.01,25.69,9.77-.83,2.01-1.93,4.49-3.42,5.06-3.65,1.39-7.58,2.7-11.43,2.81-12.23.35-24.55-.67-36.71.31-19.4,1.56-28.48,6.28-34.25,27.17-4.06,14.7-1.99,29.54,1.2,44.27,1.93,8.87,3.54,17.84,4.59,26.85.65,5.58-.89,7.21-6.79,7.21M226.76,78.23c4.5-3.78,9-7.56,14.03-11.79-1.67-.09-2.82-.45-3.79-.17-8.98,2.63-17.6,6.07-23.85,13.42-1.07,1.26-.71,3.73-1.02,5.64,2.09.08,4.63.94,6.17.06,2.95-1.7,5.33-4.39,8.46-7.16M209.24,228.8c-.11-2.07-.23-4.14-.34-6.21-1.5.2-4.1.05-4.29.66-.62,1.99-.37,4.26-.45,6.42,1.54-.1,3.08-.2,5.08-.87Z"/>
    <path class="cls-20" d="M234.12,183.6c5.97-.38,7.43-1.54,6.77-7.12-1.05-9.01-2.67-17.98-4.59-26.85-3.2-14.72-5.26-29.56-1.2-44.27,5.77-20.9,14.85-25.61,34.25-27.17,12.17-.98,24.48.04,36.71-.31,3.85-.11,7.78-1.42,11.43-2.81,1.5-.57,2.28-3.21,3.42-5.06,5.96,2.82,13.41,3.8,19.17,10.25-4.75.69-8.38,1.58-12.04,1.68-18.11.48-36.25.3-54.33,1.29-7.62.41-15.55,2.08-22.56,5.03-9.25,3.9-13.74,12.12-14.14,22.29-.63,15.72,3.09,30.93,5.43,46.31,1.39,9.17,3.43,18.44-.5,27.43-.8,1.82-3.2,2.95-4.86,4.39-.99-1.66-2.03-3.02-2.96-5.07Z"/>
    <path class="cls-20" d="M215.43,168.01c-2.61-6.09.51-14.17,6.51-16.41,4.1-1.53,6.69.7,8.36,4.12.84,1.73,1.25,4.9,1.75,7.18-8.07-2.36-11.12-2.31-16.62,5.11Z"/>
    <path class="cls-2" d="M284.25,50.32c.72-.26,1.68-.29,2.72-.04-.77.28-1.62.27-2.72.04Z"/>
    <path class="cls-2" d="M253.3,50.67c.59-.44,1.49-.77,2.56-.84-.64.49-1.44.72-2.56.84Z"/>
    <path class="cls-2" d="M296.21,52.3c.45-.21,1.09-.21,1.79.05-.5.23-1.05.2-1.79-.05Z"/>
    <path class="cls-2" d="M291.21,51.32c.44-.24,1.09-.26,1.79-.04-.49.25-1.04.25-1.79.04Z"/>
    <path class="cls-2" d="M247.25,51.62c.33-.4.92-.69,1.65-.75-.37.44-.88.65-1.65.75Z"/>
    <path class="cls-4" d="M226.5,78.48c-2.87,2.53-5.25,5.22-8.2,6.92-1.53.88-4.08.02-6.17-.06.3-1.91-.05-4.38,1.02-5.64,6.25-7.35,14.87-10.79,23.85-13.42.97-.28,2.12.07,3.79.17-5.03,4.23-9.53,8.01-14.29,12.03Z"/>
    <path class="cls-18" d="M209.01,229.08c-1.77.38-3.31.48-4.85.58.08-2.16-.17-4.42.45-6.42.19-.61,2.79-.46,4.29-.66.11,2.07.23,4.14.11,6.49Z"/>
  </g>
</svg>